<?xml version="1.0" encoding="UTF-8"?>
<svg fill="#ffffff" id="Layer_2" data-name="Layer 2" xmlns="http://www.w3.org/2000/svg" viewBox="0 0 504.13 504">
  <g id="Layer_1-2" data-name="Layer 1">
    <path d="M324.69,0C287.71,0,257.49,30.18,257.49,67.2v238.52c-26.25,19.93-44.8,50.07-44.8,86.28,0,12.02,1.89,23.61,5.43,34.48-11.77,2.91-22.22,14.17-22.23,27.12,1.14,13.73,7.78,25.7,12.95,35.35,2.77,5.57,8.83,9.33,15.05,9.33s12.29-3.76,15.05-9.33c3.09-6.09,5.62-10.84,8.23-16.27,20.16,19.4,47.46,31.32,77.52,31.32,61.64,0,112-50.27,112-112,0-36.21-18.55-66.35-44.8-86.27V67.2C391.89,30.17,361.67,0,324.69,0h0Zm-102.2,5.61c-5.73,.48-11.09,4.12-13.65,9.27-4.84,12.29-12.31,23.92-12.95,35.52,0,15.02,14.14,28,28,28,6.4,0,13.52-1.96,19.25-7.18,5.73-5.21,8.86-13.56,8.75-21.17-1.04-13.43-6.95-23.41-12.95-35.18-2.97-5.99-9.79-9.83-16.45-9.27h0Zm102.2,28c19.28,0,33.6,14.28,33.6,33.6v246.4c.02,5.64,3.1,11.18,7.88,14.18,22.56,14.32,36.92,36.31,36.92,64.22,0,43.6-34.88,78.4-78.4,78.4s-78.4-34.8-78.4-78.4c0-27.91,14.36-49.9,36.93-64.23,4.78-3,7.86-8.53,7.88-14.17V67.21c0-19.32,14.32-33.6,33.6-33.6h0ZM71.46,78.41c-10.23,.73-18.04,12.53-14.7,22.23,2.39,7.04,5.31,18.22,14.88,28.35h.18c3.39,3.6,7.23,7.52,14.52,9.8,3.68,1.15,8.6,1.8,13.65,.18,4.19-2.12,6.43-3.89,9.27-7,4.46-4.19,9.12-14.5,7.52-22.05-1.91-7.55-5.87-11.81-9.98-15.57-7.98-7.77-18.71-11.69-28.7-15.05-2.12-.74-4.4-1.04-6.64-.88h0Zm253.05,5.25c-8.86,.09-16.81,8.29-16.62,17.15v226.27c-28.88,7.54-50.4,33.82-50.4,64.93,0,36.91,30.27,67.2,67.2,67.2s67.2-30.29,67.2-67.2c0-31.11-21.52-57.39-50.4-64.93V100.81c.19-8.97-8-17.25-16.98-17.15Zm99.23,.35c-8.8,.46-16.39,8.88-15.93,17.68,.46,8.8,8.88,16.38,17.68,15.93h61.6c8.88,.12,17.04-7.92,17.04-16.8s-8.16-16.93-17.04-16.8c0,0-63.35,0-63.35,0Zm-192.85,16.62c-.94-.02-1.88,.04-2.8,.18-80.69,6.46-144.2,74.64-144.2,156.8,0,64.2,38.5,119.89,93.98,144.2,8.06,3.57,18.65-.51,22.23-8.57,3.57-8.07-.52-18.65-8.58-22.23-43.47-19.05-74.02-62.66-74.02-113.4,0-64.86,50.01-118.3,113.4-123.38,8.72-.12,16.56-8.08,16.56-16.8s-7.85-16.68-16.56-16.8h0Zm192.85,28.18c-8.8,.46-16.39,8.88-15.93,17.68,.46,8.8,8.88,16.38,17.68,15.92h28c8.88,.12,17.04-7.92,17.04-16.8s-8.16-16.93-17.04-16.8h-29.75Zm0,50.4c-8.8,.46-16.39,8.88-15.93,17.68s8.88,16.38,17.68,15.93h61.6c8.88,.12,17.04-7.92,17.04-16.8s-8.16-16.93-17.04-16.8h-63.35ZM44.51,224.01c-9.34,.13-15.08,3.08-21,5.77-5.92,2.7-11.33,5.77-14.18,7.18-5.57,2.77-9.33,8.83-9.33,15.05s3.76,12.29,9.33,15.05c2.74,1.35,7.94,4.3,13.82,7,5.89,2.7,12.12,5.72,21.18,5.95h.35c15.04,0,28-14.14,28-28,0-6.4-1.96-13.52-7.18-19.25s-13.39-8.86-21-8.75h0Zm379.23,0c-8.8,.46-16.39,8.88-15.93,17.68s8.88,16.38,17.68,15.93h28c8.88,.12,17.04-7.92,17.04-16.8s-8.16-16.93-17.04-16.8h-29.75Zm0,44.8c-8.8,.46-16.39,8.88-15.93,17.68,.46,8.8,8.88,16.38,17.68,15.92h61.6c8.88,.12,17.04-7.92,17.04-16.8s-8.16-16.93-17.04-16.8h-63.35Zm-99.05,89.6c18.77,0,33.6,14.84,33.6,33.6s-14.83,33.6-33.6,33.6-33.6-14.84-33.6-33.6,14.83-33.6,33.6-33.6Zm-234.15,5.77c-.96,.05-1.88,.14-2.8,.35-6.77,1.9-12.67,6.58-16.45,10.68-7.3,7.98-11.19,18.29-14.52,28.18-1.95,5.89-.28,12.82,4.12,17.19s11.35,5.98,17.23,3.98c11.3-4.5,19.48-8.25,27.12-14,5.06-4,10.73-11.07,11.9-16.62,1.44-7.87-2.61-16.55-7-21.7-4.55-5.42-13.54-8.71-19.6-8.05h0Z"/>
  </g>
</svg>