<?xml version="1.0" encoding="UTF-8"?>
<svg fill="#ffffff" xmlns="http://www.w3.org/2000/svg" width="700pt" height="700pt" version="1.1" viewBox="0 0 700 700">
    <g>
     <path d="m577.5 328.3c-10.395 0.0625-20.367-4.1172-27.613-11.566-13.5-12.367-31.141-19.227-49.449-19.227-18.305 0-35.945 6.8594-49.445 19.227l-0.71875 0.55859c-25.652-99.871-150.73-267.89-156.27-275.29-3.4453-4.1836-8.5781-6.6094-14-6.6094s-10.555 2.4258-14 6.6094c-16.484 22.051-161 217.79-161 308-0.003906 42.461 15.43 83.477 43.426 115.4 27.996 31.926 66.645 52.582 108.74 58.121 42.102 5.543 84.777-4.4141 120.08-28.012 5.1953-3.4805 8.1406-9.4648 7.7266-15.703-0.41406-6.2422-4.1289-11.785-9.7383-14.543-5.6133-2.7617-12.27-2.3164-17.465 1.1602-28.242 18.871-62.383 26.828-96.055 22.391-33.676-4.4375-64.59-20.965-86.98-46.504-22.395-25.539-34.738-58.348-34.734-92.312 0-60.148 90.859-199.32 140-267.75 33.934 47.531 119 171.82 136.73 245.44-7.8438-1.5781-15.078-5.3672-20.84-10.922-13.488-12.367-31.121-19.23-49.422-19.23-18.301 0-35.934 6.8633-49.418 19.23-7.2266 7.4336-17.164 11.605-27.531 11.551-6.25 0-12.027 3.3359-15.152 8.75-3.1289 5.4141-3.1289 12.086 0 17.5 3.125 5.4141 8.9023 8.75 15.152 8.75 18.328 0.16406 36.02-6.7266 49.406-19.25 7.2578-7.3906 17.184-11.555 27.543-11.555s20.285 4.1641 27.547 11.555c13.492 12.363 31.133 19.223 49.438 19.223 18.301 0 35.941-6.8594 49.438-19.223 7.2773-7.3984 17.223-11.566 27.605-11.566 10.379 0 20.324 4.168 27.605 11.566 13.398 12.5 31.078 19.383 49.402 19.234 6.2539 0 12.031-3.3359 15.156-8.75 3.125-5.4141 3.125-12.086 0-17.5-3.125-5.4141-8.9023-8.75-15.156-8.75z"/>
     <path d="m577.5 400.4c-10.395 0.0625-20.367-4.1133-27.613-11.566-13.5-12.363-31.141-19.223-49.449-19.223-18.305 0-35.945 6.8594-49.445 19.223-7.2695 7.4023-17.207 11.57-27.578 11.57-10.375 0-20.312-4.168-27.582-11.57-13.484-12.367-31.121-19.23-49.418-19.23-18.301 0-35.934 6.8633-49.422 19.23-7.2227 7.4336-17.164 11.602-27.527 11.551-6.2539 0-12.027 3.3359-15.156 8.75-3.125 5.4141-3.125 12.086 0 17.5 3.1289 5.4141 8.9023 8.75 15.156 8.75 18.328 0.16406 36.016-6.7305 49.402-19.25 7.2578-7.3906 17.184-11.559 27.547-11.559 10.359 0 20.285 4.168 27.543 11.559 13.496 12.363 31.137 19.223 49.438 19.223 18.305 0 35.941-6.8594 49.438-19.223 7.2812-7.3984 17.227-11.566 27.605-11.566 10.383 0 20.328 4.168 27.609 11.566 13.402 12.523 31.109 19.422 49.453 19.266 6.2539 0 12.031-3.332 15.156-8.75 3.125-5.4141 3.125-12.082 0-17.5-3.125-5.4141-8.9023-8.75-15.156-8.75z"/>
     <path d="m516.25 262.5c20.887 0 40.918-8.2969 55.684-23.066 14.77-14.766 23.066-34.797 23.066-55.684 0-37.852-54.023-110.25-64.855-124.39-3.4492-4.1055-8.5352-6.4727-13.895-6.4727s-10.445 2.3672-13.895 6.4727c-10.832 14.141-64.855 86.539-64.855 124.39 0 20.887 8.2969 40.918 23.066 55.684 14.766 14.77 34.797 23.066 55.684 23.066zm0-162.75c21.281 30.344 43.75 68.25 43.75 84 0 15.629-8.3398 30.074-21.875 37.887-13.535 7.8164-30.215 7.8164-43.75 0-13.535-7.8125-21.875-22.258-21.875-37.887 0-15.75 22.469-53.656 43.75-84z"/>
    </g>
</svg>