<?xml version="1.0" encoding="UTF-8"?>
<svg fill="#ffffff" id="Layer_2" data-name="Layer 2" xmlns="http://www.w3.org/2000/svg" viewBox="0 0 358.4 324.81">
  <g id="Layer_1-2" data-name="Layer 1">
    <g>
      <path d="M281.96,68.17c-11.43-27.09-33.1-48.58-60.29-59.77-27.19-11.19-57.7-11.19-84.89,0-27.19,11.19-48.86,32.68-60.29,59.77-21.27,3.14-40.69,13.82-54.73,30.1C7.72,114.54,0,135.32,0,156.81c0,5.04,.46,10.05,1.34,15.01,1.17,7.28,5.84,13.52,12.5,16.68,6.66,3.17,14.44,2.86,20.82-.83,4.07-2.28,7.3-5.79,9.24-10.03,1.93-4.24,2.46-8.99,1.51-13.55-1.46-8.78-.23-17.8,3.53-25.87,3.85-7.96,9.89-14.65,17.41-19.29,7.52-4.64,16.21-7.04,25.04-6.92h1.4c4.96,0,9.78-1.66,13.71-4.7,3.92-3.04,6.72-7.3,7.96-12.1,4.9-19.35,18.2-35.5,36.25-44.02s38.97-8.52,57.02,0c18.05,8.52,31.35,24.67,36.25,44.02,1.24,4.8,4.04,9.06,7.96,12.1,3.92,3.04,8.74,4.7,13.71,4.7h1.4c8.84-.12,17.52,2.27,25.04,6.92,7.52,4.64,13.56,11.33,17.41,19.29,3.76,8.07,4.99,17.09,3.53,25.87-.95,4.56-.42,9.31,1.52,13.55,1.93,4.24,5.17,7.75,9.24,10.03,6.38,3.68,14.17,4,20.82,.83,6.65-3.16,11.33-9.4,12.49-16.68,.87-4.95,1.3-9.98,1.29-15.01,0-21.48-7.71-42.26-21.74-58.53-14.03-16.27-33.45-26.96-54.7-30.11h0Z"/>
      <path d="M61.6,257.62c0,12.37-10.03,22.4-22.4,22.4s-22.4-10.03-22.4-22.4,10.03-22.4,22.4-22.4,22.4,10.03,22.4,22.4"/>
      <path d="M151.2,302.42c0,12.37-10.03,22.4-22.4,22.4s-22.4-10.03-22.4-22.4,10.03-22.4,22.4-22.4,22.4,10.03,22.4,22.4"/>
      <path d="M252,302.42c0,12.37-10.03,22.4-22.4,22.4s-22.4-10.03-22.4-22.4,10.03-22.4,22.4-22.4,22.4,10.03,22.4,22.4"/>
      <path d="M341.6,257.62c0,12.37-10.03,22.4-22.4,22.4s-22.4-10.03-22.4-22.4,10.03-22.4,22.4-22.4,22.4,10.03,22.4,22.4"/>
    </g>
  </g>
</svg>